<?xml version="1.0" standalone="no"?>
<!DOCTYPE svg PUBLIC "-//W3C//DTD SVG 20010904//EN"
 "http://www.w3.org/TR/2001/REC-SVG-20010904/DTD/svg10.dtd">
<svg version="1.0" xmlns="http://www.w3.org/2000/svg"
 width="512.000000pt" height="512.000000pt" viewBox="0 0 512.000000 512.000000"
 preserveAspectRatio="xMidYMid meet">

<g transform="translate(0.000000,512.000000) scale(0.100000,-0.100000)"
fill="#000000" stroke="none">
<path d="M2494 4980 c-18 -11 -43 -37 -56 -58 -14 -20 -179 -350 -367 -732
-189 -382 -348 -700 -355 -706 -6 -6 -359 -62 -784 -123 -425 -62 -795 -119
-823 -128 -116 -38 -139 -138 -57 -240 18 -22 283 -284 590 -582 399 -388 555
-546 552 -558 -20 -83 -264 -1542 -264 -1577 0 -128 84 -186 202 -139 24 9
355 181 736 381 l692 364 693 -364 c380 -200 711 -372 735 -381 119 -48 203
10 201 140 0 32 -60 402 -133 823 l-134 765 377 369 c738 725 798 787 811 833
23 76 -15 139 -99 166 -28 9 -398 66 -823 128 -425 61 -778 117 -785 123 -6 6
-165 324 -353 706 -188 382 -357 714 -374 737 -56 74 -120 93 -182 53z m658
-1865 c15 -5 1242 -185 1264 -185 8 0 14 -4 14 -8 0 -4 -129 -133 -287 -287
-159 -153 -368 -357 -465 -452 l-178 -173 81 -472 c44 -260 93 -549 109 -642
16 -93 28 -171 26 -173 -2 -2 -238 120 -525 272 -286 151 -546 287 -576 302
l-55 27 1 1481 0 1480 289 -583 c159 -320 294 -584 302 -587z"/>
</g>
</svg>
